<?xml version="1.0" standalone="no"?><svg xmlns="http://www.w3.org/2000/svg" viewBox="0 0 1440 320"><path fill="#0099ff" fill-opacity="0.8" d="M0,160L26.7,181.3C53.3,203,107,245,160,224C213.3,203,267,117,320,106.7C373.3,96,427,160,480,160C533.3,160,587,96,640,96C693.3,96,747,160,800,170.7C853.3,181,907,139,960,133.3C1013.3,128,1067,160,1120,181.3C1173.3,203,1227,213,1280,213.3C1333.3,213,1387,203,1413,197.3L1440,192L1440,320L1413.3,320C1386.7,320,1333,320,1280,320C1226.7,320,1173,320,1120,320C1066.7,320,1013,320,960,320C906.7,320,853,320,800,320C746.7,320,693,320,640,320C586.7,320,533,320,480,320C426.7,320,373,320,320,320C266.7,320,213,320,160,320C106.7,320,53,320,27,320L0,320Z"></path></svg>